<svg xmlns="http://www.w3.org/2000/svg" viewBox="0 0 360 127" width="120">
  <path d="M291.9 107.3L320 64.8h-27V44.4h66.5v17.3L332.8 104H360v20.4h-68.2zm-31.6 18.4q-14 0-21.9-8-7.8-8.1-7.8-22.3V64.2h-10.2V44.4H233l15-30.2h16v30.2h18.5v19.8H264v27.2q0 4 2.6 6.2 2.5 2.2 7.1 2.2 4.4 0 7.9-1.9l1.2 22.4q-4 2.4-10.3 4-6.3 1.4-12.2 1.4zm-63.3 0q-13.4 0-21-8.6-7.4-8.6-7.4-23.5V44.4h33.8v47.8q0 3.6 2 5.7 2 2 5.2 2t6.6-2l1.7 22.2q-3.5 2.8-9.3 4.2-5.6 1.4-11.6 1.4zm-11.5-93.3q-7.5 0-12.8-4.6-5.1-4.8-5.1-11.7 0-6.8 5.4-11.5Q178.5 0 185.5 0q7.3 0 12.6 4.8 5.4 4.8 5.4 11.3 0 7-5.4 11.7-5.4 4.6-12.6 4.6zm-49 93.3q-13.6 0-21.1-8.4-7.4-8.7-7.4-23.5V19.2l33.7-5v77.2q0 4.4 2.1 6.5 2.2 2 7.7 2 4 0 7.8-2l1.1 22.4q-10.7 5.4-24 5.4zM56.7 127q-16.1 0-29-7.7-13-7.8-20.4-21.2Q0 84.7 0 68.5 0 53 7.3 40.1q7.5-13 20.8-20.4 13.3-7.5 30.2-7.5 9.3 0 17.9 2 8.8 2 15.8 6L81.5 44.8q-10.9-4.5-20.3-4.5-12.3 0-19 8-6.7 7.8-6.7 20.6 0 8.3 3 15 3 6.6 8.5 10.4 5.6 3.9 12.6 3.9 3.8 0 6.4-.7V72l27.6-3.2v50q-18 8.3-36.9 8.3z"/>
</svg>